HIERARCHY
ROOT hip
{
	OFFSET 0.000000 0.000000 0.000000 
	CHANNELS 6 Xposition Yposition Zposition Xrotation Zrotation Yrotation
	JOINT abdomen
	{
		OFFSET 0.000000 3.402643 0.000000 
		CHANNELS 3 Xrotation Zrotation Yrotation
		JOINT chest
		{
			OFFSET 0.000000 8.438565 -0.680529 
			CHANNELS 3 Xrotation Zrotation Yrotation
			JOINT neck
			{
				OFFSET 0.000000 10.207942 -0.272212 
				CHANNELS 3 Xrotation Zrotation Yrotation
				JOINT head
				{
					OFFSET 0.000000 3.130431 0.000000 
					CHANNELS 3 Xrotation Zrotation Yrotation
					End Site
					{
						OFFSET 0.000000 3.130435 0.000000 
					}
				}
			}
			JOINT lCollar
			{
				OFFSET 3.470700 6.669187 -0.816635 
				CHANNELS 3 Yrotation Zrotation Xrotation
				JOINT lShldr
				{
					OFFSET 3.198488 0.000000 0.000000 
					CHANNELS 3 Zrotation Yrotation Xrotation
					JOINT lForeArm
					{
						OFFSET 10.139888 0.000000 0.000000 
						CHANNELS 3 Yrotation Zrotation Xrotation
						JOINT lHand
						{
							OFFSET 8.370511 0.000000 0.000000 
							CHANNELS 3 Zrotation Yrotation Xrotation
							End Site
							{
								OFFSET 4.083176 0.000000 0.000000 
							}
						}
					}
				}
			}
			JOINT rCollar
			{
				OFFSET -3.470700 6.669187 -0.816635 
				CHANNELS 3 Yrotation Zrotation Xrotation
				JOINT rShldr
				{
					OFFSET -3.198488 0.000000 0.000000 
					CHANNELS 3 Zrotation Yrotation Xrotation
					JOINT rForeArm
					{
						OFFSET -10.139888 0.000000 0.000000 
						CHANNELS 3 Yrotation Zrotation Xrotation
						JOINT rHand
						{
							OFFSET -8.370511 0.000000 0.000000 
							CHANNELS 3 Zrotation Yrotation Xrotation
							End Site
							{
								OFFSET -4.083176 0.000000 0.000000 
							}
						}
					}
				}
			}
		}
	}
	JOINT lThigh
	{
		OFFSET 5.308129 -1.633274 1.361059 
		CHANNELS 3 Xrotation Zrotation Yrotation
		JOINT lShin
		{
			OFFSET -2.041588 -20.007561 0.000000 
			CHANNELS 3 Xrotation Zrotation Yrotation
			JOINT lFoot
			{
				OFFSET 0.000000 -19.190928 -1.224953 
				CHANNELS 3 Xrotation Yrotation Zrotation
				End Site
				{
					OFFSET 0.000000 -2.449906 4.627600 
				}
			}
		}
	}
	JOINT rThigh
	{
		OFFSET -5.308129 -1.633274 1.361059 
		CHANNELS 3 Xrotation Zrotation Yrotation
		JOINT rShin
		{
			OFFSET 2.041588 -20.007561 0.000000 
			CHANNELS 3 Xrotation Zrotation Yrotation
			JOINT rFoot
			{
				OFFSET 0.000000 -19.190928 -1.224953 
				CHANNELS 3 Xrotation Yrotation Zrotation
				End Site
				{
					OFFSET 0.000000 -2.449906 4.627600 
				}
			}
		}
	}
}
MOTION
Frames: 18
Frame Time: 0.016667
-0.201473 43.806618 1.122709 -0.537766 -2.831910 -3.176590 -22.236401 0.976898 0.686829 17.568300 0.292570 0.482774 20.258200 -2.653620 6.124400 13.278000 3.566510 3.943140 2.000000 -2.000000 0.000000 86.344002 165.445007 -6.264840 39.268002 -0.320694 0.086592 0.045758 -0.018962 -143.709000 -2.000000 2.000000 0.000000 -88.802002 -161.692993 -5.534310 -40.683998 0.318523 0.089127 -0.056443 -0.015776 -127.762001 -5.135201 3.023939 -5.381168 26.305956 3.737493 1.746084 -25.238831 12.287007 5.986830 5.176963 0.696094 2.552334 3.750212 -4.304627 -0.126250 -16.207201 -8.194207 -2.647835 
-0.199915 43.805855 1.125014 -0.537771 -2.841670 -3.176500 -22.392099 0.939169 0.753326 17.285101 0.165745 0.508104 20.299801 -2.630650 6.076400 13.268000 3.547350 3.919860 2.000000 -2.000000 0.000000 86.773399 165.451996 -5.317560 38.515999 -0.321821 0.085196 0.046057 -0.021322 -144.557999 -2.000000 2.000000 0.000000 -88.674797 -161.429001 -5.622840 -40.732800 0.318447 0.089215 -0.056435 -0.015722 -127.780998 -5.176411 3.012347 -5.389545 26.334743 3.740554 1.736793 -25.205515 12.287786 5.983299 5.185403 0.705000 2.553849 3.755951 -4.300122 -0.135531 -16.207150 -8.173678 -2.636471 
-0.198239 43.804058 1.127706 -0.557312 -2.812370 -3.166050 -22.431000 0.920955 0.760387 17.207001 0.165732 0.507878 20.280800 -2.577870 6.067410 13.258400 3.566750 3.922390 2.000000 -2.000000 0.000000 87.203400 166.270004 -4.202380 36.504299 -0.324743 0.081389 0.046489 -0.024327 -145.641998 -2.000000 2.000000 0.000000 -88.645500 -161.399994 -5.681500 -40.693802 0.318508 0.089145 -0.056470 -0.015938 -127.703003 -5.120507 3.008507 -5.372576 26.308361 3.722250 1.752321 -25.184908 12.263936 5.962635 5.201737 0.668654 2.541480 3.746861 -4.294585 -0.125621 -16.209240 -8.165972 -2.643140 
-0.196562 43.802258 1.130397 -0.576852 -2.783060 -3.155620 -22.460100 0.906218 0.776708 17.138700 0.155972 0.508263 20.261400 -2.524340 6.068110 13.239000 3.576630 3.912970 2.000000 -2.000000 0.000000 87.613899 167.106995 -3.096920 34.492500 -0.327530 0.077481 0.046973 -0.027296 -146.716995 -2.000000 2.000000 0.000000 -88.616203 -161.380997 -5.730370 -40.654701 0.318569 0.089074 -0.056505 -0.016154 -127.625000 -5.125713 2.972077 -5.333343 26.298347 3.723415 1.752695 -25.116415 12.273206 5.947483 5.227174 0.640917 2.520928 3.740735 -4.298921 -0.106584 -16.209044 -8.170112 -2.634367 
-0.195968 43.801479 1.133483 -0.567080 -2.792830 -3.155990 -22.460100 0.906218 0.776708 17.138700 0.155972 0.508263 20.232000 -2.488350 6.071670 13.229400 3.596030 3.915480 2.000000 -2.000000 0.000000 87.613899 167.106995 -3.106680 34.473000 -0.327557 0.077443 0.046968 -0.027269 -146.707001 -2.000000 2.000000 0.000000 -88.606499 -161.391006 -5.779180 -40.644901 0.318584 0.089056 -0.056536 -0.016343 -127.556999 -5.102575 2.987667 -5.305004 26.297388 3.730704 1.754314 -25.126583 12.278938 5.941252 5.215206 0.655352 2.521540 3.766054 -4.316242 -0.116176 -16.226896 -8.153319 -2.637892 
-0.195374 43.800846 1.136571 -0.567085 -2.802600 -3.165660 -22.460100 0.909647 0.785852 17.148399 0.146225 0.518635 20.202700 -2.452340 6.075190 13.210000 3.605910 3.915810 2.000000 -2.000000 0.000000 87.613899 167.106995 -3.116450 34.463299 -0.327570 0.077423 0.046964 -0.027242 -146.697006 -2.000000 2.000000 0.000000 -88.596703 -161.410004 -5.818190 -40.625401 0.318614 0.089021 -0.056567 -0.016532 -127.487999 -5.140401 2.996082 -5.283531 26.326733 3.732553 1.754561 -25.099085 12.264288 5.940604 5.215800 0.651348 2.521156 3.741366 -4.298372 -0.106528 -16.215725 -8.149971 -2.646318 
-0.193416 43.801102 1.137459 -0.557307 -2.802600 -3.127080 -22.479700 0.902714 0.767382 17.109400 0.155967 0.508183 20.182899 -2.371270 6.085870 13.190900 3.644710 3.911030 2.000000 -2.000000 0.000000 87.565002 167.067993 -3.204430 34.531601 -0.327478 0.077558 0.046940 -0.027107 -146.647995 -2.000000 2.000000 0.000000 -88.596703 -161.391006 -5.867070 -40.635201 0.318599 0.089039 -0.056576 -0.016586 -127.469002 -5.173810 2.982027 -5.311280 26.334768 3.740341 1.736784 -25.117235 12.246237 5.943029 5.208472 0.656225 2.481742 3.760078 -4.307984 -0.106723 -16.201824 -8.159295 -2.639847 
-0.191458 43.801350 1.138350 -0.547535 -2.812370 -3.088400 -22.499300 0.899210 0.758057 17.080099 0.165710 0.497745 20.153700 -2.281710 6.090020 13.171800 3.683510 3.906230 2.000000 -2.000000 0.000000 87.516197 167.020004 -3.282670 34.599998 -0.327385 0.077692 0.046913 -0.026945 -146.589996 -2.000000 2.000000 0.000000 -88.596703 -161.371002 -5.915950 -40.644901 0.318584 0.089056 -0.056589 -0.016666 -127.439003 -5.167108 3.001486 -5.350924 26.316563 3.731871 1.744754 -25.139715 12.223917 5.930861 5.198571 0.667405 2.462485 3.761271 -4.307446 -0.116407 -16.198452 -8.169408 -2.633220 
-0.191594 43.801605 1.140755 -0.537757 -2.812380 -3.079110 -22.509100 0.895744 0.748821 17.070299 0.165708 0.497717 20.114201 -2.218090 6.103340 13.142800 3.712800 3.899210 2.000000 -2.000000 0.000000 87.486900 166.960999 -3.282800 34.805099 -0.327106 0.078094 0.046894 -0.026837 -146.550995 -2.000000 2.000000 0.000000 -88.577202 -161.352005 -5.945290 -40.644901 0.318584 0.089056 -0.056585 -0.016640 -127.448997 -5.163299 3.010102 -5.360487 26.315765 3.734879 1.735666 -25.152700 12.245454 5.934915 5.198502 0.673201 2.453268 3.746877 -4.294570 -0.125620 -16.192841 -8.176217 -2.648317 
-0.191729 43.801991 1.143161 -0.518202 -2.812390 -3.060540 -22.528601 0.883220 0.743235 17.060499 0.165707 0.487923 20.075199 -2.146010 6.110190 13.113800 3.742100 3.901940 2.000000 -2.000000 0.000000 87.447800 166.901993 -3.282940 35.010101 -0.326826 0.078496 0.046876 -0.026730 -146.511993 -2.000000 2.000000 0.000000 -88.557602 -161.332993 -5.974630 -40.654701 0.318569 0.089074 -0.056580 -0.016613 -127.459000 -5.217701 2.994609 -5.368045 26.344395 3.742175 1.737117 -25.142065 12.244801 5.933140 5.189260 0.679864 2.433571 3.769175 -4.314017 -0.125690 -16.201893 -8.179813 -2.651186 
-0.188351 43.801605 1.148307 -0.498660 -2.841690 -3.051480 -22.528601 0.874199 0.746975 17.080099 0.126720 0.490348 20.066500 -2.120660 6.090920 13.104200 3.751860 3.893070 2.000000 -2.000000 0.000000 87.486801 166.901993 -3.351300 34.883202 -0.327000 0.078247 0.046849 -0.026568 -146.453003 -2.000000 2.000000 0.000000 -88.538101 -161.352005 -6.003880 -40.625401 0.318614 0.089021 -0.056585 -0.016640 -127.448997 -5.205196 3.012157 -5.447001 26.334862 3.742687 1.747023 -25.191477 12.225710 5.950298 5.176528 0.703550 2.425282 3.739925 -4.300624 -0.125503 -16.189110 -8.162610 -2.639620 
-0.184971 43.801224 1.153455 -0.479113 -2.861230 -3.042520 -22.528500 0.868608 0.759859 17.099600 0.087731 0.492747 20.048000 -2.086090 6.074850 13.094500 3.761630 3.874440 2.000000 -2.000000 0.000000 87.516098 166.903000 -3.419660 34.756199 -0.327173 0.077999 0.046822 -0.026406 -146.393997 -2.000000 2.000000 0.000000 -88.508904 -161.371994 -6.042900 -40.596100 0.318660 0.088968 -0.056589 -0.016666 -127.439003 -5.261885 3.025482 -5.522140 26.386377 3.728908 1.753321 -25.254911 12.230267 5.963551 5.163055 0.731059 2.417220 3.748517 -4.292641 -0.115686 -16.192987 -8.151534 -2.645691 
-0.183006 43.801991 1.155777 -0.469347 -2.890530 -3.042770 -22.528500 0.868608 0.759859 17.109400 0.077984 0.493349 20.058500 -2.069270 6.062240 13.094700 3.780910 3.867750 2.000000 -2.000000 0.000000 87.496597 166.863998 -3.458810 34.814800 -0.327093 0.078113 0.046799 -0.026271 -146.345993 -2.000000 2.000000 0.000000 -88.547897 -161.341995 -6.013670 -40.635201 0.318599 0.089039 -0.056576 -0.016586 -127.469002 -5.264369 3.059043 -5.512158 26.377823 3.721990 1.762156 -25.254635 12.209424 5.949697 5.149731 0.751867 2.418420 3.737922 -4.289419 -0.125490 -16.181988 -8.151616 -2.644947 
-0.181040 43.802761 1.158097 -0.449799 -2.910070 -3.043600 -22.528500 0.868608 0.759859 17.109400 0.058488 0.494524 20.068899 -2.043290 6.052640 13.094900 3.790560 3.859520 2.000000 -2.000000 0.000000 87.476997 166.834000 -3.488180 34.873402 -0.327013 0.078228 0.046781 -0.026163 -146.307007 -2.000000 2.000000 0.000000 -88.577103 -161.302994 -5.984470 -40.674198 0.318538 0.089109 -0.056567 -0.016532 -127.487999 -5.309975 3.073433 -5.489843 26.436436 3.726209 1.762736 -25.265686 12.205081 5.959517 5.135145 0.779444 2.420102 3.748844 -4.292354 -0.115657 -16.170620 -8.156146 -2.634290 
-0.178210 43.803146 1.158618 -0.440021 -2.910070 -3.044100 -22.528500 0.856158 0.754455 17.119101 0.058488 0.494534 19.999399 -1.987090 6.081650 13.065900 3.819860 3.862180 2.000000 -2.000000 0.000000 87.428200 166.806000 -3.673790 34.912498 -0.326960 0.078305 0.046711 -0.025732 -146.149994 -2.000000 2.000000 0.000000 -88.596603 -161.264008 -5.945500 -40.732800 0.318447 0.089215 -0.056562 -0.016505 -127.498001 -5.253396 3.096211 -5.501950 26.360640 3.705598 1.768290 -25.248974 12.199072 5.941186 5.126141 0.779142 2.409507 3.749248 -4.292002 -0.115621 -16.205957 -8.168393 -2.655694 
-0.175379 43.803539 1.159141 -0.430242 -2.910070 -3.034830 -22.528500 0.852730 0.745310 17.119101 0.058488 0.494534 19.940300 -1.940830 6.097300 13.036800 3.839520 3.873040 2.000000 -2.000000 0.000000 87.379402 166.785995 -3.859380 34.941799 -0.326920 0.078362 0.046641 -0.025300 -145.994003 -2.000000 2.000000 0.000000 -88.616096 -161.225006 -5.906530 -40.801201 0.318341 0.089339 -0.056554 -0.016451 -127.516998 -5.269640 3.087386 -5.501455 26.380428 3.708126 1.778509 -25.256327 12.180543 5.941779 5.118406 0.771522 2.398356 3.740342 -4.300261 -0.126198 -16.218796 -8.164852 -2.654379 
-0.174338 43.803146 1.159961 -0.430239 -2.900310 -3.034900 -22.518600 0.850601 0.767422 17.119101 0.048740 0.495119 19.872801 -1.968680 6.076400 13.007100 3.820600 3.858270 2.000000 -2.000000 0.000000 87.369698 166.787003 -3.878910 34.951500 -0.326907 0.078381 0.046637 -0.025272 -145.983994 -2.000000 2.000000 0.000000 -88.625900 -161.205002 -5.867520 -40.840302 0.318280 0.089410 -0.056527 -0.016289 -127.575996 -5.310567 3.070536 -5.479990 26.407677 3.722956 1.771889 -25.231342 12.165133 5.927078 5.119140 0.762464 2.407277 3.740008 -4.300553 -0.125495 -16.206182 -8.143539 -2.652964 
-0.173298 43.802898 1.160780 -0.430235 -2.890540 -3.034970 -22.518400 0.848438 0.789449 17.119101 0.038992 0.505470 19.815599 -1.997360 6.045680 12.977500 3.801680 3.843520 2.000000 -2.000000 0.000000 87.369698 166.796005 -3.888660 34.951500 -0.326907 0.078381 0.046632 -0.025246 -145.973999 -2.000000 2.000000 0.000000 -88.635597 -161.175995 -5.828530 -40.889099 0.318204 0.089498 -0.056500 -0.016127 -127.635002 -5.320458 3.068977 -5.459943 26.408178 3.719114 1.771003 -25.236076 12.151702 5.931266 5.109682 0.755220 2.415580 3.762888 -4.306536 -0.126054 -16.235481 -8.129541 -2.647696 
